P2	5	5	255
50	78	0	40	42	
75	50	40	42	95	
95	75	65	65	18	
81	75	65	55	5	
53	37	55	44	1	
